<svg width="20" height="20" viewBox="0 0 20 20" fill="none" xmlns="http://www.w3.org/2000/svg">
<path d="M6.83776 10.0487C6.83776 8.29834 8.25594 6.87899 10.0058 6.87899C11.7557 6.87899 13.1746 8.29834 13.1746 10.0487C13.1746 11.7991 11.7557 13.2185 10.0058 13.2185C8.25594 13.2185 6.83776 11.7991 6.83776 10.0487ZM5.12476 10.0487C5.12476 12.7453 7.31001 14.9312 10.0058 14.9312C12.7016 14.9312 14.8869 12.7453 14.8869 10.0487C14.8869 7.35213 12.7016 5.16626 10.0058 5.16626C7.31001 5.16626 5.12476 7.35213 5.12476 10.0487ZM13.9394 4.97266C13.9393 5.19834 14.0062 5.41896 14.1314 5.60665C14.2567 5.79434 14.4348 5.94066 14.6432 6.0271C14.8516 6.11355 15.0809 6.13624 15.3022 6.0923C15.5235 6.04836 15.7268 5.93977 15.8864 5.78026C16.046 5.62075 16.1547 5.41749 16.1988 5.19617C16.2429 4.97485 16.2204 4.74542 16.1341 4.53689C16.0479 4.32837 15.9018 4.15011 15.7142 4.02466C15.5267 3.8992 15.3062 3.8322 15.0806 3.83211H15.0801C14.7777 3.83225 14.4877 3.95244 14.2738 4.1663C14.06 4.38015 13.9397 4.67017 13.9394 4.97266ZM6.16552 17.7884C5.23875 17.7462 4.73503 17.5917 4.40027 17.4613C3.95647 17.2885 3.63982 17.0826 3.30689 16.7501C2.97396 16.4175 2.76788 16.101 2.59586 15.6571C2.46537 15.3224 2.311 14.8184 2.26887 13.8914C2.22278 12.8891 2.21358 12.588 2.21358 10.0488C2.21358 7.50959 2.22354 7.20935 2.26887 6.20625C2.31107 5.27922 2.46659 4.77618 2.59586 4.4405C2.76864 3.99656 2.97442 3.67982 3.30689 3.3468C3.63936 3.01377 3.95571 2.80763 4.40027 2.63556C4.73487 2.50503 5.23875 2.35062 6.16552 2.30847C7.1675 2.26238 7.46848 2.25317 10.0058 2.25317C12.5432 2.25317 12.8445 2.26314 13.8473 2.30847C14.774 2.35069 15.2769 2.50625 15.6125 2.63556C16.0563 2.80763 16.373 3.01423 16.7059 3.3468C17.0388 3.67936 17.2441 3.99656 17.4169 4.4405C17.5474 4.77519 17.7018 5.27922 17.7439 6.20625C17.79 7.20935 17.7992 7.50959 17.7992 10.0488C17.7992 12.588 17.79 12.8883 17.7439 13.8914C17.7017 14.8184 17.5466 15.3223 17.4169 15.6571C17.2441 16.101 17.0384 16.4178 16.7059 16.7501C16.3734 17.0823 16.0563 17.2885 15.6125 17.4613C15.2779 17.5918 14.774 17.7462 13.8473 17.7884C12.8453 17.8345 12.5443 17.8437 10.0058 17.8437C7.46734 17.8437 7.16719 17.8345 6.16552 17.7884ZM6.08681 0.597866C5.07487 0.643963 4.38339 0.804466 3.77951 1.03951C3.15411 1.28225 2.62468 1.60789 2.09563 2.13626C1.56659 2.66462 1.24187 3.19504 0.999209 3.82062C0.764228 4.42505 0.603772 5.11636 0.557689 6.12859C0.510845 7.14242 0.500122 7.46654 0.500122 10.0487C0.500122 12.6309 0.510845 12.955 0.557689 13.9689C0.603772 14.9812 0.764228 15.6724 0.999209 16.2768C1.24187 16.902 1.56666 17.4331 2.09563 17.9612C2.62461 18.4893 3.15411 18.8145 3.77951 19.0579C4.38453 19.293 5.07487 19.4535 6.08681 19.4996C7.10088 19.5457 7.42438 19.5572 10.0058 19.5572C12.5873 19.5572 12.9113 19.5464 13.9248 19.4996C14.9368 19.4535 15.6279 19.293 16.2321 19.0579C16.8572 18.8145 17.387 18.4896 17.916 17.9612C18.4451 17.4328 18.7691 16.902 19.0124 16.2768C19.2474 15.6724 19.4086 14.9811 19.454 13.9689C19.5 12.9543 19.5108 12.6309 19.5108 10.0487C19.5108 7.46654 19.5 7.14242 19.454 6.12859C19.4079 5.11628 19.2474 4.42467 19.0124 3.82062C18.7691 3.19542 18.4442 2.66546 17.916 2.13626C17.3878 1.60705 16.8572 1.28225 16.2329 1.03951C15.6279 0.804466 14.9368 0.643203 13.9256 0.597866C12.9121 0.551769 12.588 0.540283 10.0066 0.540283C7.42514 0.540283 7.10088 0.551009 6.08681 0.597866Z" fill="white"/>
</svg>
