<svg width="158" height="54" viewBox="0 0 158 54" fill="none" xmlns="http://www.w3.org/2000/svg">
<path d="M50.2839 37.8225C50.3681 37.3177 50.5417 36.8315 50.797 36.3848C51.0447 35.9443 51.3717 35.5509 51.7591 35.223C52.149 34.8963 52.5892 34.6316 53.0646 34.441C53.5387 34.2455 54.048 34.1453 54.5624 34.1441C55.5082 34.1082 56.4162 34.5066 57.0224 35.2218C57.6374 35.9431 57.8952 36.8958 57.728 37.8238C57.6714 38.3286 57.5116 38.8185 57.2576 39.2602C57.0098 39.7007 56.6841 40.0942 56.2955 40.4221C55.9056 40.7487 55.4654 41.0135 54.9913 41.204C54.5172 41.3995 54.0078 41.4997 53.4947 41.4997C53.008 41.5059 52.525 41.4045 52.0823 41.204C51.6736 41.0209 51.3089 40.7549 51.0133 40.4221C50.7203 40.0855 50.5077 39.6883 50.392 39.2602C50.2625 38.7926 50.226 38.3051 50.2851 37.8238" fill="white"/>
<path d="M21.257 27.005C20.4886 25.8506 19.1492 25.1886 17.7481 25.2728C17.1847 25.2777 16.6288 25.4076 16.1232 25.6526C15.5925 25.8902 15.2328 26.3913 15.1813 26.9629C15.0794 27.4417 15.3536 27.9205 15.8227 28.0826C16.4414 28.3573 17.0866 28.5689 17.7481 28.7161C18.5191 28.8992 19.3542 29.0972 20.2521 29.3075C21.1212 29.5067 21.9512 29.842 22.7121 30.2998C23.4491 30.7465 24.0503 31.3812 24.4477 32.1384C24.8879 33.1134 25.0149 34.196 24.8099 35.244C24.6917 36.438 24.2314 37.5738 23.4806 38.5203C22.78 39.3704 21.9148 40.0744 20.9351 40.5916C19.9239 41.1224 18.8335 41.4935 17.7054 41.6915C16.5773 41.8994 15.4315 42.0058 14.2833 42.0095C12.8206 42.0083 11.3655 41.8016 9.96071 41.3958C8.60746 41.0333 7.39885 40.2736 6.49585 39.2182L10.9882 34.9508C11.4447 35.6313 12.0522 36.2017 12.7628 36.6199C13.5174 37.0208 14.3663 37.2163 15.2228 37.189C15.9208 37.1952 16.615 37.0888 17.2765 36.8723C17.8387 36.7325 18.26 36.2747 18.3455 35.7105C18.4524 35.2156 18.1934 34.7145 17.7242 34.5054C17.1155 34.1985 16.4678 33.9709 15.7988 33.8298C15.014 33.6455 14.1726 33.4487 13.2746 33.2371C12.4069 33.0367 11.5718 32.7175 10.7958 32.2869C10.0425 31.8662 9.4262 31.2426 9.01998 30.4904C8.56722 29.5191 8.44648 28.4291 8.67915 27.3848C8.81623 26.2626 9.22749 25.1899 9.8777 24.2582C10.4902 23.3995 11.2674 22.667 12.1666 22.1028C13.0835 21.5312 14.0884 21.1105 15.1423 20.8569C16.205 20.5921 17.2966 20.4572 18.3933 20.4548C19.7705 20.456 21.1401 20.6552 22.4581 21.0462C23.7384 21.4025 24.8741 22.1412 25.7091 23.1607L21.257 27.005Z" fill="white"/>
<path d="M30.9976 9.55307H37.4154L32.879 41.4985H26.465L30.9976 9.55307Z" fill="white"/>
<path d="M53.0608 24.638C53.145 24.1332 53.3199 23.647 53.5739 23.2016C53.8217 22.7611 54.1487 22.3676 54.536 22.0398C54.9259 21.7131 55.3661 21.4483 55.8415 21.2578C56.3156 21.0623 56.825 20.9621 57.3381 20.9621C58.2838 20.9262 59.1931 21.3234 59.7981 22.0398C60.4131 22.7611 60.6721 23.715 60.5049 24.6418C60.4483 25.1466 60.2886 25.6353 60.0345 26.077C59.7868 26.5175 59.4598 26.9109 59.0711 27.2388C58.6813 27.5667 58.2411 27.8302 57.7669 28.0208C57.2928 28.2163 56.7835 28.3165 56.2703 28.3177C55.7836 28.3227 55.3007 28.2225 54.858 28.0208C54.4492 27.8377 54.0845 27.5716 53.789 27.2388C53.4959 26.9023 53.2846 26.5051 53.1689 26.077C53.0394 25.6093 53.0029 25.1231 53.062 24.6418" fill="white"/>
<path d="M117.464 37.8225C117.549 37.3177 117.722 36.8314 117.977 36.3848C118.225 35.9443 118.552 35.5509 118.941 35.223C119.329 34.8963 119.77 34.634 120.242 34.4435C120.717 34.2492 121.226 34.1478 121.739 34.1478C122.685 34.1119 123.594 34.5091 124.199 35.2255C124.814 35.9468 125.072 36.8995 124.905 37.8275C124.848 38.3323 124.688 38.821 124.434 39.2639C124.187 39.7044 123.86 40.0979 123.471 40.4258C123.081 40.7536 122.641 41.0172 122.165 41.2077C121.691 41.402 121.182 41.5034 120.668 41.5034C120.181 41.5084 119.698 41.4082 119.255 41.2077C118.846 41.0246 118.482 40.7586 118.186 40.4258C117.893 40.0892 117.681 39.692 117.565 39.2639C117.435 38.7963 117.399 38.3088 117.458 37.8275" fill="white"/>
<path d="M120.241 24.638C120.326 24.1332 120.5 23.647 120.754 23.2016C121.003 22.7611 121.329 22.3676 121.718 22.0398C122.108 21.7131 122.548 21.4483 123.023 21.2578C123.497 21.0623 124.007 20.9621 124.52 20.9621C125.466 20.9262 126.375 21.3234 126.981 22.0398C127.596 22.7623 127.854 23.715 127.687 24.6418C127.63 25.1466 127.47 25.6353 127.216 26.077C126.968 26.5175 126.641 26.9109 126.253 27.2388C125.863 27.5667 125.423 27.8302 124.947 28.0208C124.473 28.2163 123.964 28.3165 123.451 28.3177C122.964 28.3227 122.481 28.2225 122.038 28.0208C121.63 27.8389 121.265 27.5716 120.969 27.2388C120.676 26.9023 120.465 26.5051 120.348 26.077C120.219 25.6093 120.182 25.1218 120.241 24.6405" fill="white"/>
<path d="M65.289 9.55307H71.7068L66.6661 41.4985H60.2483L65.289 9.55307Z" fill="white"/>
<path d="M76.3225 9.55307H82.7416L77.7009 41.4985H71.283L76.3225 9.55307Z" fill="white"/>
<path d="M82.7793 20.9621H89.6222L92.0181 33.8496H92.1011L97.4927 20.9621H104.509L106.519 33.8496H106.602L112.336 20.9621H118.839L108.536 41.4985H102.204L99.8068 27.85H99.7238L93.9486 41.4985H87.488L82.7793 20.9621Z" fill="white"/>
<path d="M132.661 9.55307H139.078L134.038 41.4985H127.62L132.661 9.55307Z" fill="white"/>
<path d="M143.697 9.55307H150.114L145.074 41.4985H138.656L143.697 9.55307Z" fill="white"/>
<path d="M36.1502 29.0749L44.408 20.9621H52.281L42.6938 30.2157L49.5821 41.4985H41.4991L35.9327 31.1041L35.2938 29.9027L36.1502 29.0749Z" fill="white"/>
</svg>
