<svg width="16" height="16" viewBox="0 0 16 16" fill="none" xmlns="http://www.w3.org/2000/svg">
<path d="M3.62896 15.7001V5.4352H0.220095V15.7001H3.62931H3.62896ZM1.92524 4.03394C3.11373 4.03394 3.85365 3.24572 3.85365 2.26066C3.8314 1.25316 3.11373 0.486938 1.94784 0.486938C0.781149 0.486938 0.019165 1.25316 0.019165 2.26057C0.019165 3.24563 0.758814 4.03385 1.9029 4.03385H1.92497L1.92524 4.03394ZM5.51581 15.7001H8.92441V9.96833C8.92441 9.66195 8.94665 9.35476 9.03671 9.13593C9.28302 8.52272 9.8439 7.88795 10.7858 7.88795C12.019 7.88795 12.5126 8.82919 12.5126 10.2092V15.7001H15.9211V9.81452C15.9211 6.66171 14.2396 5.19455 11.9969 5.19455C10.1582 5.19455 9.35065 6.22316 8.90198 6.92374H8.92467V5.43556H5.51599C5.56048 6.39852 5.51572 15.7004 5.51572 15.7004L5.51581 15.7001Z" fill="white"/>
</svg>
